<svg version="1.2" xmlns="http://www.w3.org/2000/svg" viewBox="0 0 512 512" width="512" height="512">
	<title>guilloche (1)</title>
	<style>
		.s0 { fill: none;stroke: #000000;stroke-linecap: round;stroke-linejoin: round;stroke-width: 1.9 } 
	</style>
	<path class="s0" d="m256 256l-66.62-193.48 197.8 90.99-189.23 64.79 111.94-178.46 57.68 206.4-165.12-110.52 213.79-29.15-119.12 171.29-12.77-200.85 162.69 145.3-202.39 13.21 153.9-137.84-4.58 216.88-131.61-149.45 210.01 32.91-165.42 133.51 39.25-195.23 112.41 185.53-202.2-42.42 181.88-89.76-68.25 207.18-89.36-180.33 188.81 88.79-199.73 81.65 87.75-178.27 53.24 207.58-186.18-98.57 196.27-38.51-125.79 177.71-39.05-200.88 154.44 134.25-216.8 20.09 131.48-150.72-7.72 210.52-153.15-149.9 198.27 13.15-170.58 132.14 17.52-207.9 111.48 167.55-213.54-44.49 168.67-112.63-64.36 196.32-104.48-190.11 188.71 63.62-198.33 76.5 76.5-198.33 63.62 188.71-190.11-104.48 196.32-64.36-112.63 168.67-44.49-213.54 167.55 111.48-207.9 17.52 132.14-170.58 13.15 198.27-149.9-153.15 210.52-7.72-150.72 131.48 20.09-216.8 134.25 154.44-200.88-39.05 177.71-125.79-38.51 196.27-98.57-186.18 207.58 53.24-178.27 87.75 81.65-199.73 88.79 188.81-180.33-89.36 207.18-68.25-89.76 181.88-42.42-202.2 185.53 112.41-195.23 39.25 133.51-165.42 32.91 210.01-149.45-131.61 216.88-4.58-137.84 153.9 13.21-202.39 145.3 162.69-200.85-12.77 171.29-119.12-29.15 213.79-110.52-165.12 206.4 57.68-178.46 111.94 64.79-189.23 90.99 197.8-193.48-66.62 193.48-66.62-90.99 197.8-64.79-189.23 178.46 111.94-206.4 57.68 110.52-165.12 29.15 213.79-171.29-119.12 200.85-12.77-145.3 162.69-13.21-202.39 137.84 153.9-216.88-4.58 149.45-131.61-32.91 210.01-133.51-165.42 195.23 39.25-185.53 112.41 42.42-202.2 89.76 181.88-207.18-68.25 180.33-89.36-88.79 188.81-81.65-199.73 178.27 87.75-207.58 53.24 98.57-186.18 38.51 196.27-177.71-125.79 200.88-39.05-134.25 154.44-20.09-216.8 150.72 131.48-210.52-7.72 149.9-153.15-13.15 198.27-132.14-170.58 207.9 17.52-167.55 111.48 44.49-213.54 112.63 168.67-196.32-64.36 190.11-104.48-63.62 188.71-76.5-198.33 198.33 76.5-188.71 63.62 104.48-190.11 64.36 196.32-168.67-112.63 213.54-44.49-111.48 167.55-17.52-207.9 170.58 132.14-198.27 13.15 153.15-149.9 7.72 210.52-131.48-150.72 216.8 20.09-154.44 134.25 39.05-200.88 125.79 177.71-196.27-38.51 186.18-98.57-53.24 207.58-87.75-178.27 199.73 81.65-188.81 88.79 89.36-180.33 68.25 207.18-181.88-89.76 202.2-42.42-112.41 185.53-39.25-195.23 165.42 133.51-210.01 32.91 131.61-149.45 4.58 216.88-153.9-137.84 202.39 13.21-162.69 145.3 12.77-200.85 119.12 171.29-213.79-29.15 165.12-110.52-57.68 206.4-111.94-178.46 189.23 64.79-197.8 90.99 66.62-193.48 66.62 193.48-197.8-90.99 189.23-64.79-111.94 178.46-57.68-206.4 165.12 110.52-213.79 29.15 119.12-171.29 12.77 200.85-162.69-145.3 202.39-13.21-153.9 137.84 4.58-216.88 131.61 149.45-210.01-32.91 165.42-133.51-39.25 195.23-112.41-185.53 202.2 42.42-181.88 89.76 68.25-207.18 89.36 180.33-188.81-88.79 199.73-81.65-87.75 178.27-53.24-207.58 186.18 98.57-196.27 38.51 125.79-177.71 39.05 200.88-154.44-134.25 216.8-20.09-131.48 150.72 7.72-210.52 153.15 149.9-198.27-13.15 170.58-132.14-17.52 207.9-111.48-167.55 213.54 44.49-168.67 112.63 64.36-196.32 104.48 190.11-188.71-63.62 198.33-76.5-76.5 198.33-63.62-188.71 190.11 104.48-196.32 64.36 112.63-168.67 44.49 213.54-167.55-111.48 207.9-17.52-132.14 170.58-13.15-198.27 149.9 153.15-210.52 7.72 150.72-131.48-20.09 216.8-134.25-154.44 200.88 39.05-177.71 125.79 38.51-196.27 98.57 186.18-207.58-53.24 178.27-87.75-81.65 199.73-88.79-188.81 180.33 89.36-207.18 68.25 89.76-181.88 42.42 202.2-185.53-112.41 195.23-39.25-133.51 165.42-32.91-210.01 149.45 131.61-216.88 4.58 137.84-153.9-13.21 202.39-145.3-162.69 200.85 12.77-171.29 119.12 29.15-213.79 110.52 165.12-206.4-57.68 178.46-111.94-64.79 189.23-90.99-197.8 193.48 66.62-193.48 66.62 90.99-197.8 64.79 189.23-178.46-111.94 206.4-57.68-110.52 165.12-29.15-213.79 171.29 119.12-200.85 12.77 145.3-162.69 13.21 202.39-137.84-153.9 216.88 4.58-149.45 131.61 32.91-210.01 133.51 165.42-195.23-39.25 185.53-112.41-42.42 202.2-89.76-181.88 207.18 68.25-180.33 89.36 88.79-188.81 81.65 199.73-178.27-87.75 207.58-53.24-98.57 186.18-38.51-196.27 177.71 125.79-200.88 39.05 134.25-154.44 20.09 216.8-150.72-131.48 210.52 7.72-149.9 153.15 13.15-198.27 132.14 170.58-207.9-17.52 167.55-111.48-44.49 213.54-112.63-168.67 196.32 64.36-190.11 104.48 63.62-188.71 76.5 198.33-198.33-76.5 188.71-63.62-104.48 190.11-64.36-196.32 168.67 112.63-213.54 44.49 111.48-167.55 17.52 207.9-170.58-132.14 198.27-13.15-153.15 149.9-7.72-210.52 131.48 150.72-216.8-20.09 154.44-134.25-39.05 200.88-125.79-177.71 196.27 38.51-186.18 98.57 53.24-207.58 87.75 178.27-199.73-81.65 188.81-88.79-89.36 180.33-68.25-207.18 181.88 89.76-202.2 42.42 112.41-185.53 39.25 195.23-165.42-133.51 210.01-32.91-131.61 149.45-4.58-216.88 153.9 137.84-202.39-13.21 162.69-145.3-12.77 200.85-119.12-171.29 213.79 29.15-165.12 110.52 57.68-206.4 111.94 178.46-189.23-64.79 197.8-90.99"/>
</svg>