<svg version="1.2" xmlns="http://www.w3.org/2000/svg" viewBox="0 0 60 60" width="60" height="60">
	<title>image</title>
	<style>
		.s0 { fill: none;stroke: #000000;stroke-linecap: round;stroke-linejoin: round } 
	</style>
	<g>
		<path class="s0" d="m30 30l-17.64-4.73-7.45-9.76 5.49-5.11 12.1 6.61 8.51 16.77-1.01 17.43-7.7 7.52-5.29-6.23 4.87-14.38 14.84-12 16.27-2.28 7.01 6.16-7.01 6.16-16.27-2.28-14.84-12-4.87-14.38 5.29-6.23 7.7 7.52 1.01 17.43-8.51 16.77-12.1 6.61-5.49-5.11 7.45-9.76 17.64-4.73 17.64 4.73 7.45 9.76-5.49 5.11-12.1-6.61-8.51-16.77 1.01-17.43 7.7-7.52 5.29 6.23-4.87 14.38-14.84 12-16.27 2.28-7.01-6.16 7.01-6.16 16.27 2.28 14.84 12 4.87 14.38-5.29 6.23-7.7-7.52-1.01-17.43 8.51-16.77 12.1-6.61 5.49 5.11-7.45 9.76-17.64 4.73-17.64-4.73-7.45-9.76 5.49-5.11 12.1 6.61 8.51 16.77-1.01 17.43-7.7 7.52-5.29-6.23 4.87-14.38 14.84-12 16.27-2.28 7.01 6.16-7.01 6.16-16.27-2.28-14.84-12-4.87-14.38 5.29-6.23 7.7 7.52 1.01 17.43-8.51 16.77-12.1 6.61-5.49-5.11 7.45-9.76 17.64-4.73 17.64 4.73 7.45 9.76-5.49 5.11-12.1-6.61-8.51-16.77 1.01-17.43 7.7-7.52 5.29 6.23-4.87 14.38-14.84 12-16.27 2.28-7.01-6.16 7.01-6.16 16.27 2.28 14.84 12 4.87 14.38-5.29 6.23"/>
	</g>
</svg>